<?xml version="1.0" ?><svg viewBox="0 0 64 64" xmlns="http://www.w3.org/2000/svg"><title/><g data-name="09-Don't touch the face" id="_09-Don_t_touch_the_face"><path d="M49,39.221A7.617,7.617,0,0,0,51,34V33a3,3,0,0,0-3-3H46V26c-4-2-5-8-5-8a7.458,7.458,0,0,1-6,5l1-4s-5,7-12,7V20l-6,5v5H16a3,3,0,0,0-3,3v1a7.023,7.023,0,0,0,5,7A14.118,14.118,0,0,0,32,52" style="fill:none;stroke:#000;stroke-linejoin:round;stroke-width:2px"/><path d="M29,6.166A31.987,31.987,0,0,1,33,6c5,0,9,5,9,5s.943-1.885,4.658-1.995C50.7,8.886,54,13.962,54,18V28.892a4,4,0,0,1-.57,2.058L51,35" style="fill:none;stroke:#000;stroke-linejoin:round;stroke-width:2px"/><path d="M25,7.132a19.882,19.882,0,0,1,2-.6" style="fill:none;stroke:#000;stroke-linejoin:round;stroke-width:2px"/><path d="M13,36s-3-2-3-8a10.323,10.323,0,0,1,1.172-5" style="fill:none;stroke:#000;stroke-linejoin:round;stroke-width:2px"/><path d="M37.512,35A3.93,3.93,0,0,1,37,33c0-1.657.9-3,2-3s2,1.343,2,3-.9,3-2,3" style="fill:none;stroke:#000;stroke-linejoin:round;stroke-width:2px"/><ellipse cx="25" cy="33" rx="2" ry="3" style="fill:none;stroke:#000;stroke-linejoin:round;stroke-width:2px"/><polyline points="25 53 25 57 11 60 9 63" style="fill:none;stroke:#000;stroke-linejoin:round;stroke-width:2px"/><path d="M25,57s2,2,7,2,7-2,7-2V55" style="fill:none;stroke:#000;stroke-linejoin:round;stroke-width:2px"/><path d="M44,57H43l-7-4-6.565-7.182a1.665,1.665,0,0,1,.347-2.533h0a1.8,1.8,0,0,1,2.308.308L37,49l-5.565-6.182a1.665,1.665,0,0,1,.347-2.533h0a1.8,1.8,0,0,1,2.308.308L39,46h.026l-5.58-6.169a1.685,1.685,0,0,1,.336-2.546h0a1.8,1.8,0,0,1,2.308.308L41,43l-4.585-5.274a1.582,1.582,0,0,1,.381-2.432h0a1.815,1.815,0,0,1,2.337.3L45,42V38a2.023,2.023,0,0,1,2-2h0a2.023,2.023,0,0,1,2,2v7l2,4h0C51,53.418,48.418,57,44,57Z" style="fill:none;stroke:#000;stroke-linejoin:round;stroke-width:2px"/><line style="fill:none;stroke:#000;stroke-linejoin:round;stroke-width:2px" x1="51" x2="63" y1="49" y2="60"/><line style="fill:none;stroke:#000;stroke-linejoin:round;stroke-width:2px" x1="43" x2="50" y1="57" y2="63"/><circle cx="12" cy="12" r="11" style="fill:none;stroke:#000;stroke-linejoin:round;stroke-width:2px"/><line style="fill:none;stroke:#000;stroke-linejoin:round;stroke-width:2px" x1="6" x2="18" y1="6" y2="18"/><line style="fill:none;stroke:#000;stroke-linejoin:round;stroke-width:2px" x1="18" x2="6" y1="6" y2="18"/><path d="M35,26s0,2,3,2a4.333,4.333,0,0,0,4-2" style="fill:none;stroke:#000;stroke-linejoin:round;stroke-width:2px"/></g></svg>